# xmcd
#
# Track frame offsets:
#	183
#	12465
#	25075
#	37415
#	48040
#	59630
#	71043
#	83680
#	97133
#	110080
#	122850
#	136928
#	149175
#	160603
#
# Disc length: 2306 seconds
#
# Revision: 0
# Processed by: cddbd v1.5PL3 Copyright (c) Steve Scherf et al.
# Submitted via: dBpowerAMP V4.0
#
DISCID=d109000e
DTITLE=Jimmy RogersBlues - Chicago - blues - disc 2
DYEAR=1900
DGENRE=Blues
TTITLE0=One kiss
TTITLE1=I' can't believe
TTITLE2=What have i done
TTITLE3=My baby don't love me no more
TTITLE4=Trace on you
TTITLE5=Don't you know my baby
TTITLE6=Crying shame
TTITLE7=Give love another chance
TTITLE8=This has never been
TTITLE9=Rock this house
TTITLE10=My last meal
TTITLE11=You don't know
TTITLE12=Can't keep from worrying
TTITLE13=Walking by myself
EXTD=
EXTT0=
EXTT1=
EXTT2=
EXTT3=
EXTT4=
EXTT5=
EXTT6=
EXTT7=
EXTT8=
EXTT9=
EXTT10=
EXTT11=
EXTT12=
EXTT13=
PLAYORDER=
